<svg t="1629353993461" class="icon" viewBox="0 0 1024 1024" version="1.1" xmlns="http://www.w3.org/2000/svg" p-id="4380" width="300" height="300"><path d="M829.8 948.2H193.1c-35.1 0-63.7-28.2-63.7-62.9V131.1c0-34.7 28.5-62.9 63.7-62.9h191v62.9h-63.7V194h63.7v62.9h-63.7v62.9h63.7v62.9h-63.7v62.9h63.7v62.9h-63.7v62.9h63.7v0.1h127.3v-0.1h-63.7v-62.9h63.7v-62.9h-63.7v-62.9h63.7v-62.9h-63.7v-62.9h63.7V194h-63.7V68.2H575v314.3h318.3v502.9c0.2 34.6-28.3 62.8-63.5 62.8zM320.4 822.5h191.1V633.9h-191v188.6z m63.7-125.7h63.7v62.9h-63.7v-62.9zM638.8 68.2l254.7 251.4H638.8V68.2z" p-id="4381"></path></svg>