<svg t="1629786993026" class="icon" viewBox="0 0 1025 1024" version="1.1" xmlns="http://www.w3.org/2000/svg" p-id="58832" width="200" height="200"><path d="M818.962501 921.629687H102.370313V153.852343h460.666406V51.48203H102.370313a102.370313 102.370313 0 0 0-102.370313 102.370313v767.777344a102.370313 102.370313 0 0 0 102.370313 102.370313h716.592188a102.370313 102.370313 0 0 0 102.370312-102.370313v-409.48125h-102.370312z" p-id="58833"></path><path d="M1008.859431 159.994562L864.005438 15.140569a51.185156 51.185156 0 0 0-72.682922 0l-72.17107 72.682922-51.185156 51.185156-274.352438 274.352438-4.094813 5.630367a51.185156 51.185156 0 0 0-18.938507 27.128133l-51.185157 197.574704v3.071109a102.370313 102.370313 0 0 0 0 20.474063v3.071109a30.711094 30.711094 0 0 0 3.07111 5.630367 26.10443 26.10443 0 0 0 4.606664 9.213328l6.142219 7.677774 7.677773 6.142218a26.10443 26.10443 0 0 0 9.213328 4.606665 30.711094 30.711094 0 0 0 5.630367 3.071109h26.616282l197.574703-51.185156a51.185156 51.185156 0 0 0 27.128133-18.938508s4.094813 0 5.630367-4.094813l253.366524-253.366523L936.176509 307.407812l72.682922-72.171071a51.185156 51.185156 0 0 0 0-75.242179z m-470.903438 398.220516l-98.787352 26.616281 26.616281-98.787352 255.925782-253.366523L791.322516 307.407812z m326.049445-325.537594l-72.682922-72.682922 36.341461-36.341461 72.682922 72.682922z" p-id="58834"></path></svg>