<svg t="1629353369015" class="icon" viewBox="0 0 1024 1024" version="1.1" xmlns="http://www.w3.org/2000/svg" p-id="1517" width="300" height="300"><path d="M417.6 120H159c-26 0-47.2 21.2-47.2 47.2v258.6c0 26 21.2 47.2 47.2 47.2h258.6c26 0 47.2-21.2 47.2-47.2V167.2c0-26-21.2-47.2-47.2-47.2zM417.6 568.1H159c-26 0-47.2 21.2-47.2 47.2v258.6c0 26 21.2 47.2 47.2 47.2h258.6c26 0 47.2-21.2 47.2-47.2V615.3c0-26-21.2-47.2-47.2-47.2zM870 120H611.4c-26 0-47.2 21.2-47.2 47.2v258.6c0 26 21.2 47.2 47.2 47.2H870c26 0 47.2-21.2 47.2-47.2V167.2c0-26-21.3-47.2-47.2-47.2zM878.5 580.8H602.9c-21.3 0-38.7 17.4-38.7 38.7 0 21.3 17.4 38.7 38.7 38.7h275.6c21.3 0 38.7-17.4 38.7-38.7 0-21.3-17.5-38.7-38.7-38.7zM878.5 712.2H602.9c-21.3 0-38.7 17.4-38.7 38.7 0 21.3 17.4 38.7 38.7 38.7h275.6c21.3 0 38.7-17.4 38.7-38.7 0-21.3-17.5-38.7-38.7-38.7zM878.5 843.7H602.9c-21.3 0-38.7 17.4-38.7 38.7 0 21.3 17.4 38.7 38.7 38.7h275.6c21.3 0 38.7-17.4 38.7-38.7 0-21.3-17.5-38.7-38.7-38.7z" p-id="1518"></path></svg>
