<svg t="1629690732944" class="icon" viewBox="0 0 1024 1024" version="1.1" xmlns="http://www.w3.org/2000/svg" p-id="1187" width="200" height="200"><path d="M1024 512c0 282.781538-229.218462 512-512 512S0 794.781538 0 512a512 512 0 1 1 1024 0z m-602.348308 253.558154c0 43.204923 33.870769 77.745231 75.303385 77.745231 41.393231 0 75.264-34.540308 75.264-77.745231v-292.824616c0-43.165538-33.870769-77.705846-75.264-77.705846-41.432615 0-75.303385 34.540308-75.303385 77.705846v292.824616z m75.303385-429.410462c41.393231 0 75.264-34.540308 75.264-77.705846 0-43.204923-33.870769-77.745231-75.264-77.745231-41.432615 0-75.303385 34.540308-75.303385 77.745231 0 43.165538 33.870769 77.705846 75.303385 77.705846z" p-id="1188"></path></svg>