<svg t="1629353847976" class="icon" viewBox="0 0 1024 1024" version="1.1" xmlns="http://www.w3.org/2000/svg" p-id="2429" width="300" height="300"><path d="M624 232h332.8c34.4 0 64-25.6 66.4-60 2.4-36.8-27.2-68-64-68H627.2c-34.4 0-64 25.6-66.4 60-2.4 36.8 27.2 68 63.2 68zM624 464h332.8c34.4 0 64-25.6 66.4-60 2.4-36.8-27.2-68-64-68H627.2c-34.4 0-64 25.6-66.4 60-2.4 36.8 27.2 68 63.2 68zM624 720h332.8c34.4 0 64-25.6 66.4-60 2.4-36.8-27.2-68-64-68H627.2c-34.4 0-64 25.6-66.4 60-2.4 36.8 27.2 68 63.2 68zM960 832H627.2c-34.4 0-64 25.6-66.4 60-2.4 36.8 27.2 68 64 68h332.8c34.4 0 64-25.6 66.4-60 2.4-36.8-27.2-68-64-68zM360 104H64c-35.2 0-64 28.8-64 64v240c0 35.2 28.8 64 64 64h296c35.2 0 64-28.8 64-64V168c0-35.2-28.8-64-64-64zM360 592H64c-35.2 0-64 28.8-64 64v240c0 35.2 28.8 64 64 64h296c35.2 0 64-28.8 64-64V656c0-35.2-28.8-64-64-64z" p-id="2430"></path></svg>