<svg t="1629353816151" class="icon" viewBox="0 0 1024 1024" version="1.1" xmlns="http://www.w3.org/2000/svg" p-id="2245" width="300" height="300"><path d="M742.4 902.496V415.952H442.432v-113.472L948.448 114.688v787.808H742.4z m-103.136-716.432l-249.792 100.4v139.888h-208.16V88.32c0-13.168 10.688-23.84 23.856-23.84h410.24a23.84 23.84 0 0 1 23.84 23.84v97.76z m-146.624 129.472v46.784h100.416V315.52H492.64z m150.64 0v46.784h100.416V315.52h-100.416z m150.624 0v46.784h100.432V315.52H793.92z m0 100.416v100.432h100.432v-100.432H793.92z m0 150.64v101.056h100.432v-101.056H793.92z m0 150.64v101.056h100.432v-101.056H793.92zM104.752 466.16h559.856a23.84 23.84 0 0 1 23.84 23.84v528.496H80.928v-528.48a23.84 23.84 0 0 1 23.84-23.84z m64.416 100.432v71.552H594.08v-71.552H169.168z m0 150.64v71.552H594.08v-71.552H169.168z m0 150.624v71.552H594.08v-71.552H169.168z" p-id="2246"></path></svg>