<svg t="1629959556210" class="icon" viewBox="0 0 1024 1024" version="1.1" xmlns="http://www.w3.org/2000/svg" p-id="1174" width="200" height="200"><path d="M607.5 707.8h33.6v-55.9c0-167.8 123.1-151.1 128.7-151.1 134.3 0 123.1 145.5 123.1 151.1v55.9H932c16.8 0 28 11.2 28 22.4v201.4c0 16.8-11.2 28-28 28H607.5c-16.8 0-28-11.2-28-22.4V735.8c0.1-16.8 11.3-28 28-28z m240.6-55.9s5.6-100.7-78.3-100.7c-5.6 0-78.3-5.6-78.3 100.7v55.9h156.7l-0.1-55.9zM64.9 892.4c5.6 33.6 39.2 67.1 78.3 67.1h324.5c22.4 0 39.2-16.8 39.2-39.2V724.6c0-190.2 50.4-257.4 162.2-296.5 33.6-11.2 50.4-44.8 44.8-78.3 5.6-22.4-11.2-44.8-33.6-44.8h-5.6l-11.2-78.3C646.7 131.6 562.8 64.4 462.1 64.4h-11.2c-95.1 5.6-173.4 72.7-195.8 162.2L243.9 305c-22.4 0-39.2 16.8-39.2 39.2v5.6c-5.6 33.6 16.8 72.7 44.8 89.5 33.6 22.4 22.4 78.3 72.7 128.7 28 16.8 44.8 50.4 44.8 78.3 0 22.4-16.8 50.4-39.2 55.9-72.7 22.4-145.5 55.9-212.6 89.5-33.6 16.8-55.9 56-50.3 100.7z" p-id="1175"></path></svg>