<svg t="1630294332872" class="icon" viewBox="0 0 1024 1024" version="1.1" xmlns="http://www.w3.org/2000/svg" p-id="3201" width="200" height="200"><path d="M878.144 805.12c-123.2-66.944-89.728-234.112-109.12-417.216C749.632 204.8 556.032 169.6 556.032 169.6s0 0-1.728-47.488C552.512 74.56 512 64 512 64S471.552 74.56 469.76 122.112C468.032 169.6 468.032 169.6 468.032 169.6S274.368 204.8 255.04 387.968c-19.392 183.04 14.08 350.272-109.184 417.216 0 0-49.28 42.176 38.72 42.176 88 0 327.424 0 327.424 0s239.424 0 327.424 0S878.144 805.12 878.144 805.12z" p-id="3202" fill="#ffffff"></path><path d="M453.056 908.928l117.888 0 0 51.072-117.888 0 0-51.072Z" p-id="3203" fill="#ffffff"></path></svg>